<svg width="145" height="144" viewBox="0 0 145 144" fill="none" xmlns="http://www.w3.org/2000/svg">
<g id="pepicons-pencil:countdown-circle-filled" clip-path="url(#clip0_438_1731)">
<g id="Group">
<g id="Mask group">
<mask id="mask0_438_1731" style="mask-type:luminance" maskUnits="userSpaceOnUse" x="0" y="0" width="145" height="144">
<g id="Group_2">
<path id="Vector" d="M0.5 0H144.5V144H0.5V0Z" fill="white"/>
<g id="Group_3">
<path id="Vector_2" fill-rule="evenodd" clip-rule="evenodd" d="M72.5036 33.2311C72.5036 32.4967 72.7954 31.7923 73.3147 31.273C73.834 30.7537 74.5384 30.4619 75.2728 30.4619C83.4884 30.4619 91.5194 32.8981 98.3504 37.4624C105.181 42.0267 110.505 48.5141 113.649 56.1043C116.793 63.6945 117.616 72.0465 116.013 80.1041C114.41 88.1618 110.454 95.5632 104.645 101.372C98.8357 107.182 91.4343 111.138 83.3766 112.741C75.3189 114.343 66.9669 113.521 59.3768 110.377C51.7866 107.233 45.2992 101.909 40.7349 95.0779C36.1706 88.2469 33.7344 80.2159 33.7344 72.0004C33.7344 71.2659 34.0261 70.5616 34.5455 70.0422C35.0648 69.5229 35.7692 69.2311 36.5036 69.2311C37.2381 69.2311 37.9424 69.5229 38.4617 70.0422C38.9811 70.5616 39.2728 71.2659 39.2728 72.0004C39.2728 79.1205 41.3842 86.0807 45.3399 92.0009C49.2957 97.9211 54.9181 102.535 61.4962 105.26C68.0744 107.985 75.3128 108.698 82.2961 107.309C89.2794 105.92 95.694 102.491 100.729 97.4562C105.763 92.4215 109.192 86.0069 110.581 79.0236C111.97 72.0403 111.257 64.8019 108.532 58.2238C105.808 51.6456 101.194 46.0232 95.2734 42.0675C89.3532 38.1117 82.393 36.0004 75.2728 36.0004C74.5384 36.0004 73.834 35.7086 73.3147 35.1893C72.7954 34.67 72.5036 33.9656 72.5036 33.2311Z" fill="black"/>
<path id="Vector_3" d="M61.4225 34.6158C61.4225 35.7174 60.9848 36.774 60.2058 37.553C59.4268 38.332 58.3703 38.7696 57.2686 38.7696C56.167 38.7696 55.1104 38.332 54.3314 37.553C53.5524 36.774 53.1148 35.7174 53.1148 34.6158C53.1148 33.5141 53.5524 32.4575 54.3314 31.6785C55.1104 30.8995 56.167 30.4619 57.2686 30.4619C58.3703 30.4619 59.4268 30.8995 60.2058 31.6785C60.9848 32.4575 61.4225 33.5141 61.4225 34.6158ZM47.5763 42.9235C47.5763 44.0251 47.1387 45.0817 46.3597 45.8607C45.5807 46.6397 44.5241 47.0773 43.4225 47.0773C42.3208 47.0773 41.2643 46.6397 40.4853 45.8607C39.7063 45.0817 39.2686 44.0251 39.2686 42.9235C39.2686 41.8218 39.7063 40.7652 40.4853 39.9862C41.2643 39.2072 42.3208 38.7696 43.4225 38.7696C44.5241 38.7696 45.5807 39.2072 46.3597 39.9862C47.1387 40.7652 47.5763 41.8218 47.5763 42.9235ZM39.2686 56.7696C39.2686 57.3151 39.1612 57.8552 38.9524 58.3592C38.7437 58.8632 38.4377 59.3211 38.052 59.7068C37.6663 60.0925 37.2084 60.3985 36.7044 60.6073C36.2004 60.816 35.6603 60.9235 35.1148 60.9235C34.5693 60.9235 34.0291 60.816 33.5252 60.6073C33.0212 60.3985 32.5633 60.0925 32.1776 59.7068C31.7919 59.3211 31.4859 58.8632 31.2771 58.3592C31.0684 57.8552 30.9609 57.3151 30.9609 56.7696C30.9609 55.6679 31.3986 54.6114 32.1776 53.8324C32.9566 53.0534 34.0131 52.6158 35.1148 52.6158C36.2165 52.6158 37.273 53.0534 38.052 53.8324C38.831 54.6114 39.2686 55.6679 39.2686 56.7696Z" fill="black"/>
<path id="Vector_4" fill-rule="evenodd" clip-rule="evenodd" d="M50.0527 78.7799C50.3817 78.1233 50.4364 77.3629 50.2048 76.666C49.9732 75.969 49.4742 75.3927 48.8176 75.0636L37.7407 69.5251C37.0849 69.2028 36.3282 69.1528 35.6357 69.3859C34.9432 69.6191 34.3708 70.1165 34.0435 70.7698C33.7161 71.4231 33.6602 72.1793 33.888 72.8736C34.1157 73.5679 34.6087 74.1441 35.2594 74.4765L46.3364 80.015C46.993 80.344 47.7534 80.3987 48.4503 80.1671C49.1472 79.9355 49.7236 79.4365 50.0527 78.7799Z" fill="black"/>
<path id="Vector_5" fill-rule="evenodd" clip-rule="evenodd" d="M38.461 70.0402C38.7188 70.2974 38.9235 70.603 39.0631 70.9395C39.2027 71.2759 39.2745 71.6366 39.2745 72.0008C39.2745 72.3651 39.2027 72.7257 39.0631 73.0622C38.9235 73.3986 38.7188 73.7042 38.461 73.9614L30.1533 82.2691C29.8962 82.5266 29.5909 82.7309 29.2548 82.8704C28.9187 83.0099 28.5585 83.0818 28.1946 83.0821C27.8307 83.0823 27.4704 83.0109 27.1341 82.8719C26.7979 82.7329 26.4923 82.529 26.2348 82.2719C25.7148 81.7526 25.4224 81.0481 25.4219 80.3132C25.4216 79.9494 25.493 79.589 25.632 79.2528C25.771 78.9165 25.9749 78.6109 26.232 78.3534L34.5397 70.0458C34.797 69.7879 35.1025 69.5833 35.439 69.4436C35.7754 69.304 36.1361 69.2322 36.5003 69.2322C36.8646 69.2322 37.2253 69.304 37.5617 69.4436C37.8981 69.5833 38.2037 69.7879 38.461 70.0458V70.0402ZM75.2696 52.6162C76.004 52.6162 76.7084 52.908 77.2277 53.4273C77.747 53.9466 78.0388 54.651 78.0388 55.3854V72.0008C78.0388 72.7353 77.747 73.4396 77.2277 73.959C76.7084 74.4783 76.004 74.7701 75.2696 74.7701C74.5351 74.7701 73.8308 74.4783 73.3114 73.959C72.7921 73.4396 72.5003 72.7353 72.5003 72.0008V55.3854C72.5003 54.651 72.7921 53.9466 73.3114 53.4273C73.8308 52.908 74.5351 52.6162 75.2696 52.6162Z" fill="black"/>
<path id="Vector_6" fill-rule="evenodd" clip-rule="evenodd" d="M94.6538 72.0007C94.6538 72.7351 94.3621 73.4395 93.8428 73.9588C93.3234 74.4782 92.6191 74.7699 91.8846 74.7699H75.2692C74.5348 74.7699 73.8304 74.4782 73.3111 73.9588C72.7918 73.4395 72.5 72.7351 72.5 72.0007C72.5 71.2662 72.7918 70.5619 73.3111 70.0425C73.8304 69.5232 74.5348 69.2314 75.2692 69.2314H91.8846C92.6191 69.2314 93.3234 69.5232 93.8428 70.0425C94.3621 70.5619 94.6538 71.2662 94.6538 72.0007Z" fill="black"/>
</g>
</g>
</mask>
<g mask="url(#mask0_438_1731)">
<path id="Vector_7" d="M72.5 144C112.265 144 144.5 111.765 144.5 72C144.5 32.2355 112.265 0 72.5 0C32.7355 0 0.5 32.2355 0.5 72C0.5 111.765 32.7355 144 72.5 144Z" fill="#02FF2E"/>
</g>
</g>
</g>
</g>
<defs>
<clipPath id="clip0_438_1731">
<rect width="144" height="144" fill="white" transform="translate(0.5)"/>
</clipPath>
</defs>
</svg>
